<?xml version="1.0" encoding="utf-8"?>
<!-- Generator: Adobe Illustrator 21.0.2, SVG Export Plug-In . SVG Version: 6.00 Build 0)  -->
<svg version="1.1" id="Layer_1" xmlns="http://www.w3.org/2000/svg" xmlns:xlink="http://www.w3.org/1999/xlink" x="0px" y="0px"
	 viewBox="0 0 144 144" style="enable-background:new 0 0 144 144;" xml:space="preserve">
<style type="text/css">
	.st0{fill:#010101;stroke:#A4A3A4;stroke-miterlimit:10;}
	.st1{fill:#010101;}
</style>
<path class="st0" d="M56.2,58.5c0.5,0.5,1.3,1.1,2.3,1.8c1.5,1.1,2.9,2,5,2.5c0.7,0.1,1.8,0.4,3.3,0.2c1.5-0.2,2.4-0.7,4.2-1.7
	c1.7-0.9,2.7-1.5,3.8-2.5c0.5-0.5,1.1-1.3,2.5-3c0.1-0.1,0.1-0.2,0.3-0.4c0.3-0.4,0.3-0.8,1.3-2.4c1.5-2.7,2-3.2,2.5-3.3
	c1-0.2,1.9,0.9,2.8,1.8c2.3,2.3,5,4.2,7.4,6.4c5,4.6,5,3.8,6.1,5.4c2.9,4.2,1.5,7.8,3.2,8.4c2.5,0.9,7.1-5.8,8.8-8.7
	c1.3-2.1,2.7-5.2,3.6-9.2c0.7-3.4,1.4-6.7,0.1-10.6c-1.1-3.1-2.9-5-3.8-6c-2.5-2.6-5.1-3.8-7.1-4.6c-1.1-0.5-4.3-1.7-8.6-2
	c-1.5-0.1-5.1-0.2-9.4,1c-2.2,0.6-4.9,1.4-7.6,3.6c-1.5,1.2-2.4,2.3-2.8,2.8c-2.7,3.4-7.8,9.2-14.5,17.1"/>
<path class="st0" d="M43.9,72.9c-0.8,1.5-1.5,2.9-2.3,4.4c-0.2,0.3-0.5,1-0.4,1.8c0.3,1.6,2.2,2.6,3.8,2.5c1-0.1,1.7-0.5,2.5-1
	c2-1.3,3.2-3.1,3.2-3.1s-3.6,3.1-3.2,6.5c0.1,1.3,1,3,2.5,3.5c0.7,0.2,1.4,0.1,1.9-0.1c3.8-1.1,6.2-5.4,6.4-5.2c0.2,0.1-1.9,3-2.3,7
	c-0.1,1.3-0.1,2.1,0.5,2.8c0.8,0.9,2.3,0.8,2.8,0.7c1.3-0.1,2.2-0.7,2.8-1c3.2-2.1,4.7-4.9,5.1-4.7c0.5,0.3-2.7,5.4-0.7,8.2
	c0.1,0.1,0.5,0.7,1.4,1.1c2.3,0.9,5.7-0.9,8.5-4.5"/>
<path class="st0" d="M74.3,37.4c-0.1-1.6-3.1-2.7-9.1-4.5c-5-1.4-7.6-1.6-8.6-1.6c-1.2-0.1-2.5-0.1-4,0.1c-2.5,0.3-7.2,0.7-12,3.8
	c-1.5,0.9-5.1,3.3-7.6,7.9c-0.9,1.5-4,7.2-2.5,14c1.1,5.5,4.4,8.8,7.6,12c3.3,3.2,4,2.9,16.1,10.5c5.8,3.6,9,5.5,15.5,9.2
	c0,0,2.9,1.5,8.2,3.3c0,0,1.5,0.5,4.3,0.8c0.8,0.1,1.2,0.1,1.7-0.1c1.3-0.5,2.1-1.9,2.2-3.3c0,0,0-0.4-0.1-0.8
	c-0.9-2.9-20.8-15.8-21-15.3c-0.1,0.3,4.5,1.7,11.3,7c2.1,1.6,4.3,3.1,6.4,4.7c2.8,2.2,4.6,3.8,6.6,3.4c1.2-0.3,2.1-1.1,2.3-1.3
	c1.1-1.1,1.4-2.3,1.5-2.8c0.4-2.7-4.4-5.2-10-9.2c-6.6-4.7-10.6-8.7-10.6-8.6c0,0,3.1,2.4,10.6,8.6c2.3,1.9,4.8,3.5,7.1,5.3
	c2.7,2.1,3.9,3.2,5.8,3.1c1.8-0.1,3.9-1.2,4.4-2.8c0.2-0.7,0-2.3-0.7-3.7c-0.1-0.1-0.1-0.1-0.1-0.2c-0.1-0.1-0.1-0.3-0.3-0.4
	c-0.2-0.3-0.5-0.8-0.5-0.9C97.8,74.4,80.9,60,80.5,59.5l0,0c0,0,6,5,12.4,10.8c4.9,4.4,6.6,6.2,9,5.8c1.6-0.3,3.4-1.5,3.7-3
	c0.1-0.6-0.1-1.3-1.7-3.5c-2.1-2.7-3.9-4.1-6.3-6.6c-1.7-1.7-1.1-1.4-3-3.4c-0.8-0.9-2.2-2.2-9.4-8c-2.2-1.8-2.9-2.3-3.8-2.1
	c-1.2,0.2-1.3,1.3-4,4.8c-0.9,1.1-2,2.6-3.9,4.1c-0.5,0.4-3,2.3-6.8,3.3c-2.1,0.5-3.1,0.4-3.4,0.3c-1.3-0.2-2.9-0.8-2.9-0.8l0,0
	c-1.1-0.5-2.5-1.4-4.1-2.9c2.3-2.3,4.3-4.3,5.8-5.9c1.5-1.6,2.9-3.4,4-4.6c2.7-3.1,2.5-3.2,3.9-4.6c1-1.1,1.9-2.1,2.1-2.4
	C73.5,39.1,74.3,38.2,74.3,37.4z"/>
<path class="st0" d="M94.7,87.1"/>
<path class="st1" d="M18.6,16.9C19.9,17.5,18.7,23,17,27c-2,4.6-5.8,9.3-7.1,8.7c-1.3-0.6-0.4-6.3,1.6-10.6
	C13.6,20.7,17.3,16.3,18.6,16.9z M11.5,46.2c1.3,0.5,5.2-5.7,7-8.6c1.7-2.8,5.9-9.4,4.8-10.3c-0.9-0.8-6.1,2.7-9.1,7.8
	C11.3,39.8,10.4,45.7,11.5,46.2z M5.6,28.9c-0.8,0.1-1.3,3.9-1.9,7.8c-0.3,2.2-0.5,3.8-0.4,6c0.1,1.5,0.2,3.8,1.2,6.6
	C5,50.8,6.9,55.2,8,54.9c1.6-0.3,1-9.4,0.5-14C8,36.2,6.7,28.9,5.6,28.9z M0.4,56.1c0.3,2.1,0.7,5.6,2.5,9.2c2.3,4.6,6.8,9.2,8,8.4
	c1.6-0.9-1.9-9.9-2.8-12.3c-2-5.2-5.8-13.1-7.4-12.6C-0.5,49.2,0.1,54.1,0.4,56.1z M10.1,59c0,0.3,0,5.4,1.3,5.6
	c1.6,0.3,4.4-6.2,5.6-10.5c0.2-0.6,3.4-10.9,1.6-11.7C17,41.7,10.2,50,10.1,59z M8.9,85.2c4.8,5.6,11.6,9.4,12.6,8.3
	c1.3-1.4-7-11.3-8.3-12.7c-1.6-1.9-9.4-11.1-11-10.1C1,71.5,3.8,79.3,8.9,85.2z M18,58.1c-0.5,0.5-0.9,1.1-1.1,1.5
	c-0.9,1.6-1.3,2.4-1.6,3.2c-0.8,2.1-2,5.2-2,8.7c0,4.9,2.1,10.3,3.6,10.2c1.4-0.1,1.9-5.2,2.8-13.5c0.1-1.3,1.1-10.9-0.3-11.1
	C19.1,57,18.4,57.7,18,58.1z M21.1,80.1c0.1,2.3,0.4,4.2,0.7,5.5c0.5,2.3,0.7,3.8,1.5,5.4c1.6,3.5,5.3,6.8,6.7,6
	c2.1-1.1-0.9-10.5-1.7-13.3c-1.2-3.9-4.1-11.9-5.8-11.5C21,72.5,21.1,79.4,21.1,80.1z M19.3,102.6c1.8,1.5,3.4,2.2,4,2.5
	c0.8,0.4,2.3,1.1,4.4,1.5c2.7,0.6,8.2,1.1,8.7-0.3c0.5-1.5-5.2-4.8-10.1-7.6c-5.8-3.4-13.7-7.9-14.9-6.4
	C10.4,93.7,15.8,99.8,19.3,102.6z M33.7,96.3c0.5,1.3,0.8,1.9,1.3,2.8c0.5,0.9,2.5,4,6.2,5.6c2.9,1.3,7.6,2.1,8.3,0.7
	c0.7-1.3-2-4-7.2-9.1c-4.3-4.2-9.5-9.2-10.7-8.3C30.5,88.8,32.4,93.4,33.7,96.3z M125.1,16.7c-0.9,0.5,0.3,5.1,1.2,7.5
	c0.4,1.1,1.5,4.2,4,7.4c1.1,1.4,2.8,3.8,3.7,3.4c0.9-0.4,0.4-3.6,0.3-4.3c-0.8-4.8-3.4-8-6-11.1C126.8,17.7,125.7,16.4,125.1,16.7z
	 M121.1,26.9c-0.9,0.7,3.5,8,5.5,11.5c3.3,5.6,4.9,8.4,5.8,8c1.2-0.4,1.3-6.3-1.5-10.6c-0.6-0.9-1.6-1.9-3.6-3.9
	C124,28.7,121.7,26.5,121.1,26.9z M138.6,28.8c-1.3,0-1.9,8.6-2.4,14.1c-0.3,3.3-1,11.7,0.3,11.9c0.9,0.2,2.5-3.8,3.4-6.8
	C142.4,38.5,140,28.7,138.6,28.8z M125.4,42.3c-1.6,0.7,2.2,11.9,2.5,12.7c0.6,1.7,3.4,9.7,4.8,9.4c1.1-0.2,1.3-5.2,0.5-9
	c-0.3-1.3-0.5-2.3-0.7-2.7C130.9,47.3,126.7,41.8,125.4,42.3z M143.4,49c-1.6-0.5-6.2,11.1-7.4,14.3c-2.3,5.9-4,10.1-2.9,10.7
	c1,0.7,4.2-1.9,6-4.4c1.3-1.7,1.9-3.5,2.7-5.9c0.9-2.5,1.3-4.4,1.3-5C143.3,58.2,144.8,49.4,143.4,49z M125.3,56.5
	c-1.6,0.2-0.7,13.3-0.7,14.3c0.3,5,0.7,11,2.1,11.1c1.4,0.1,3-5.5,3.1-5.8c0.3-1.1,0.7-3.1,0.7-5.6c-0.1-1.8-0.4-3.2-0.7-4.4
	c-0.6-2.5-1.5-4.2-2.3-5.8C126.4,57.7,125.7,56.4,125.3,56.5z M142.2,70.3c-1.3-0.9-9.1,8-11.4,10.7c-3,3.5-9.7,11.3-8.6,12.5
	c0.8,0.9,5.3-2,7.3-3.4c1.9-1.2,4-2.5,6-5c1.5-1.7,2.2-3.2,3.4-5.5C140.3,77,143.2,71,142.2,70.3z M121.5,72
	c-1.9-0.3-5,9.3-6.3,14.1c-1.1,3.8-2.8,10.2-1.2,11c1.3,0.7,4.4-2.7,4.8-3.4c1.6-1.8,2.3-3.7,2.9-5.4c0.5-1.1,1-2.7,1.3-4.8
	c0.4-2.7,0.1-4.7-0.1-6.3C122.5,74,122.3,72.1,121.5,72z M112.4,87.9c-1-0.6-3.1,1.5-10.7,9c-6.6,6.5-7.8,7.6-7.4,8.3
	c0.7,1.5,6.9,0.6,11.4-2.4c0.5-0.3,5.4-3.8,6.8-10.1C112.8,91.1,113.4,88.4,112.4,87.9z M119.1,106.2c5.7-2.1,8.9-6.2,10.8-8.7
	c1.5-1.9,3.2-4.1,2.6-4.8c-1-1.3-8.1,2.7-13.5,5.8c-7.4,4.2-12.2,6.9-11.7,8.3C107.9,108.2,114.2,108,119.1,106.2z M59.3,126.2
	c0.9-0.5,1.2-1.3,1.5-1.7c1.9-3.3,5.2-5.2,8.2-7c1.8-1.1,3.6-1.9,5.4-2.7c1.3-0.6,0.7-0.3,3-1.3c2.1-0.9,3-1.3,4.5-1.4
	c0.7-0.1,1.5-0.1,2.1,0.3c0.7,0.5,0.9,1.1,1.3,1.6c0.8,1.3,2.3,1.7,4.7,2.3c2.4,0.7,4.4,0.6,6.3,0.5c2.3-0.1,4.1-0.4,5-0.5
	c3.2-0.6,13.3-2.4,13.3-4.3c-0.1-2.9-25.3-3.7-32.4-1.9c-2.7,0.7-5.5,1.6-5.5,1.6c-0.8,0.2-2.7,0.9-4.9,1.9c-7,3.2-6.9,5-15.1,10.1
	c-1.1,0.7-2.3,1.3-2.1,1.9C54.6,126.6,57.5,127.3,59.3,126.2z M90.1,125.7c0.1-0.6-1-1.3-2.1-1.9c-8.2-5-8.1-6.8-15.1-10.1
	c-2.2-1-4.1-1.7-4.9-1.9c0,0-2.7-0.9-5.5-1.6c-7.1-1.7-32.4-0.9-32.4,1.9c-0.1,1.9,10.1,3.7,13.3,4.3c0.9,0.1,2.7,0.5,5,0.5
	c1.9,0.1,3.8,0.1,6.3-0.5c2.3-0.6,3.8-1,4.7-2.3c0.3-0.5,0.5-1.1,1.3-1.6c0.7-0.4,1.5-0.4,2.1-0.3c1.5,0.1,2.4,0.5,4.5,1.4
	c2.3,1,1.7,0.7,3,1.3c1.8,0.8,3.6,1.5,5.4,2.7c3,1.8,6.3,3.8,8.2,7c0.3,0.5,0.7,1.2,1.5,1.7C87.1,127.3,90,126.6,90.1,125.7z"/>
</svg>
